<?xml version="1.0" encoding="UTF-8"?>
<svg width="128px" height="128px" viewBox="0 0 128 128" version="1.1" xmlns="http://www.w3.org/2000/svg" xmlns:xlink="http://www.w3.org/1999/xlink">
    <title>Group 2</title>
    <defs>
        <linearGradient x1="198.716023%" y1="-92.2344058%" x2="6.29391642%" y2="85.6076218%" id="linearGradient-1">
            <stop stop-color="#FFFFFF" offset="0%"></stop>
            <stop stop-color="#1B1321" offset="74.0138767%"></stop>
            <stop stop-color="#0E0119" offset="100%"></stop>
        </linearGradient>
    </defs>
    <g id="Page-1" stroke="none" stroke-width="1" fill="none" fill-rule="evenodd">
        <g id="Group-2">
            <g>
                <rect id="Rectangle" fill="url(#linearGradient-1)" x="7.10542736e-15" y="0" width="128" height="128"></rect>
                <g id="governance-logo" transform="translate(26.500000, 94.250000)"></g>
            </g>
            <path d="M64,14 C91.61425,14 114,36.38575 114,64 C114,91.61425 91.61425,114 64,114 C36.385775,114 14,91.61425 14,64 C14,36.38575 36.385775,14 64,14 Z M44.7795009,68.4444444 L32.1481481,68.4444444 C32.1481481,72.6272396 32.9768061,76.7692245 34.5868174,80.6335012 C36.1968287,84.4980266 38.5566568,88.0094444 41.5314959,90.9671875 C44.5064352,93.9249306 48.0382682,96.2710185 51.9252619,97.8718229 C55.8120052,99.4723785 59.3035417,100.296296 64.1851852,100.296296 L64.3103299,100.296296 C64.5461024,100.296296 64.7781207,100.293559 65.0066348,100.288333 C69.4660402,100.199745 72.7798712,99.3813021 76.4451085,97.8718229 C80.3321021,96.2710185 83.8639352,93.9249306 86.8388744,90.9671875 C89.8138137,88.0094444 92.1735417,84.4980266 93.7836531,80.6335012 C95.3935142,76.7692245 96.2222222,72.6272396 96.2222222,68.4444444 L64.1851852,68.4444444 L82.5128733,76.7480729 C82.4434597,76.9541146 82.3906486,77.108397 82.3544401,77.2109201 C81.3730556,79.9902431 79.9343924,82.5154977 78.1207957,84.6426042 C76.3071991,86.7699595 74.1539598,88.4573611 71.7844705,89.6085069 C69.6294792,90.6553877 67.3338252,91.2404167 65.0066348,91.3377141 C64.7555946,91.3466725 64.5043041,91.3514005 64.2530136,91.352147 C61.7075709,91.3434375 59.1881583,90.7511921 56.8361892,89.6085069 C54.4666999,88.4573611 52.3134606,86.7699595 50.499864,84.6426042 C48.6862674,82.5154977 47.2476042,79.9902431 46.2662196,77.2109201 C45.2845848,74.4315972 44.7795009,71.4527025 44.7795009,68.4444444 Z M96.2222222,34.3703704 L32.1481481,34.3703704 L51.9758203,41.8297552 L32.1481481,64 L46.1643519,64 L64.2477575,43.5354677 L82.4563079,64 L96.2222222,64 L76.4295906,41.8166981 L96.2222222,34.3703704 Z" id="Shape" fill="#FFFFFF" fill-rule="nonzero"></path>
        </g>
    </g>
</svg>