<svg xmlns="http://www.w3.org/2000/svg" version="1.1" xmlns:xlink="http://www.w3.org/1999/xlink" xmlns:svgjs="http://svgjs.dev/svgjs" width="2000" height="1999" viewBox="0 0 2000 1999"><g transform="matrix(1,0,0,1,-0.431486880466764,-0.4312711370263287)"><svg viewBox="0 0 343 343" data-background-color="#000000" preserveAspectRatio="xMidYMid meet" height="1999" width="2000" xmlns="http://www.w3.org/2000/svg" xmlns:xlink="http://www.w3.org/1999/xlink"><g id="tight-bounds" transform="matrix(1,0,0,1,0.0740000000000407,0.07400000000001228)"><svg viewBox="0 0 342.85155851775386 342.85155851775386" height="342.85155851775386" width="342.85155851775386"><g><svg></svg></g><g><svg viewBox="0 0 342.85155851775386 342.85155851775386" height="342.85155851775386" width="342.85155851775386"><g><path d="M0 171.426c0-94.676 76.75-171.426 171.426-171.426 94.676 0 171.426 76.75 171.426 171.426 0 94.676-76.75 171.426-171.426 171.426-94.676 0-171.426-76.75-171.426-171.426zM171.426 340.027c93.116 0 168.601-75.485 168.601-168.601 0-93.116-75.485-168.601-168.601-168.601-93.116 0-168.601 75.485-168.601 168.601 0 93.116 75.485 168.601 168.601 168.601z" data-fill-palette-color="tertiary" fill="#ffffff" stroke="transparent"></path><ellipse rx="164.56874808852186" ry="164.56874808852186" cx="171.42577925887693" cy="171.42577925887693" fill="#ffffff" stroke="transparent" stroke-width="0" fill-opacity="1" data-fill-palette-color="tertiary"></ellipse></g><g transform="matrix(1,0,0,1,64.84655864529837,105.35470325590697)"><svg viewBox="0 0 213.1584412271571 132.14215200593992" height="132.14215200593992" width="213.1584412271571"><g><svg viewBox="0 0 213.1584412271571 132.14215200593992" height="132.14215200593992" width="213.1584412271571"><g><svg viewBox="0 0 213.1584412271571 132.14215200593992" height="132.14215200593992" width="213.1584412271571"><g transform="matrix(1,0,0,1,0,79.77113010689473)"><svg viewBox="0 0 213.1584412271571 52.371021899045196" height="52.371021899045196" width="213.1584412271571"><g id="textblocktransform"><svg viewBox="0 0 213.1584412271571 52.371021899045196" height="52.371021899045196" width="213.1584412271571" id="textblock"><g><svg viewBox="0 0 213.1584412271571 31.322022748666793" height="31.322022748666793" width="213.1584412271571"><g transform="matrix(1,0,0,1,0,0)"><svg width="213.1584412271571" viewBox="4.05 -40.45 277.96999999999997 40.85" height="31.322022748666793" data-palette-color="#000000"><path d="M9.95-34.65L9.95-2.1Q9.95 0.3 7 0.3L7 0.3Q4.05 0.3 4.05-2.1L4.05-2.1 4.05-36.7Q4.05-37.85 4.7-38.78 5.35-39.7 7.2-39.7L7.2-39.7 24.2-39.7Q26-39.7 26.1-37.2L26.1-37.2Q26.2-34.65 24.2-34.65L24.2-34.65 9.95-34.65ZM22.75-20.65L22.75-20.65Q22.75-19.8 22.43-19.03 22.1-18.25 21.53-17.7 20.95-17.15 20.2-16.82 19.45-16.5 18.55-16.5L18.55-16.5Q16.85-16.5 15.65-17.7 14.45-18.9 14.45-20.65L14.45-20.65Q14.45-22.4 15.65-23.6 16.85-24.8 18.55-24.8L18.55-24.8Q19.45-24.8 20.2-24.48 20.95-24.15 21.53-23.58 22.1-23 22.43-22.25 22.75-21.5 22.75-20.65ZM36.5-22.75L36.5-2.1Q36.5 0.3 33.75 0.3L33.75 0.3Q30.9 0.3 30.9-2.1L30.9-2.1 30.9-22.8Q30.9-26.9 33.35-28.5L33.35-28.5Q35.8-30.1 39-30.1L39-30.1 44.7-30.1Q46.55-30.1 46.55-27.75L46.55-27.75Q46.65-25.4 44.7-25.4L44.7-25.4 39.4-25.4Q37.6-25.4 37.05-24.7 36.5-24 36.5-22.75L36.5-22.75ZM56.45-27.9L56.45-2.1Q56.45 0.3 53.7 0.3L53.7 0.3Q50.9 0.3 50.9-2.1L50.9-2.1 50.9-27.9Q50.9-30.3 53.7-30.3L53.7-30.3Q56.45-30.3 56.45-27.9L56.45-27.9ZM57.5-36.6L57.5-36.6Q57.5-35 56.4-33.9 55.3-32.8 53.7-32.8L53.7-32.8Q52.1-32.8 50.97-33.9 49.85-35 49.85-36.6L49.85-36.6Q49.85-38.25 50.97-39.35 52.1-40.45 53.7-40.45L53.7-40.45Q55.3-40.45 56.4-39.35 57.5-38.25 57.5-36.6ZM87.44-10.3L87.44-7.95Q87.44-3.85 84.74-1.9L84.74-1.9Q82.09 0 79.44 0L79.44 0 71.04 0Q68.39 0 65.89-1.9L65.89-1.9Q64.69-2.9 64.04-4.42 63.39-5.95 63.39-7.95L63.39-7.95 63.39-22.2Q63.39-26.25 65.89-28.2L65.89-28.2Q67.14-29.1 68.47-29.63 69.79-30.15 71.04-30.15L71.04-30.15 79.44-30.15Q80.64-30.15 82.09-29.68 83.54-29.2 84.79-28.4L84.79-28.4Q85.99-27.55 86.72-26.05 87.44-24.55 87.44-22.5L87.44-22.5 87.44-20Q87.44-17.6 84.69-17.6L84.69-17.6Q81.94-17.6 81.94-20L81.94-20 81.94-22.15Q81.94-23.4 81.17-24.43 80.39-25.45 78.54-25.45L78.54-25.45 72.29-25.45Q70.44-25.45 69.67-24.43 68.89-23.4 68.89-22.15L68.89-22.15 68.89-8Q68.89-6.8 69.67-5.75 70.44-4.7 72.29-4.7L72.29-4.7 78.54-4.7Q80.39-4.7 81.17-5.75 81.94-6.8 81.94-8L81.94-8 81.94-10.3Q81.94-12.65 84.69-12.65L84.69-12.65Q87.44-12.65 87.44-10.3L87.44-10.3ZM104.39-25.4L100.24-25.4 100.24-7.2Q100.24-5.9 100.79-5.2 101.34-4.5 103.14-4.5L103.14-4.5 104.44-4.5Q106.39-4.5 106.29-2.2L106.29-2.2Q106.29 0.15 104.44 0.15L104.44 0.15 102.79 0.15Q101.19 0.15 99.79-0.28 98.39-0.7 97.09-1.5L97.09-1.5 97.09-1.45Q94.64-3.05 94.64-7.15L94.64-7.15 94.64-25.4 92.69-25.4Q90.89-25.4 90.79-27.75L90.79-27.75Q90.79-30.1 92.69-30.1L92.69-30.1 94.64-30.1 94.64-35.45Q94.64-37.85 97.49-37.85L97.49-37.85Q100.24-37.85 100.24-35.45L100.24-35.45 100.24-30.1 104.39-30.1Q106.34-30.1 106.24-27.75L106.24-27.75Q106.24-25.4 104.39-25.4L104.39-25.4ZM116.29-27.9L116.29-2.1Q116.29 0.3 113.54 0.3L113.54 0.3Q110.74 0.3 110.74-2.1L110.74-2.1 110.74-27.9Q110.74-30.3 113.54-30.3L113.54-30.3Q116.29-30.3 116.29-27.9L116.29-27.9ZM117.34-36.6L117.34-36.6Q117.34-35 116.24-33.9 115.14-32.8 113.54-32.8L113.54-32.8Q111.94-32.8 110.81-33.9 109.69-35 109.69-36.6L109.69-36.6Q109.69-38.25 110.81-39.35 111.94-40.45 113.54-40.45L113.54-40.45Q115.14-40.45 116.24-39.35 117.34-38.25 117.34-36.6ZM131.24-30.1L139.24-30.1Q140.54-30.1 141.91-29.55 143.29-29 144.59-28.15L144.59-28.15 144.54-28.15Q145.84-27.2 146.54-25.68 147.24-24.15 147.24-22.15L147.24-22.15 147.24-7.95Q147.24-3.85 144.54-1.9L144.54-1.9Q141.89 0 139.24 0L139.24 0 131.24 0Q129.94 0 128.59-0.45 127.24-0.9 125.94-1.9L125.94-1.9Q123.24-3.8 123.24-7.95L123.24-7.95 123.24-22.15Q123.24-24.15 123.94-25.68 124.64-27.2 125.94-28.15L125.94-28.15 125.89-28.15Q127.14-29 128.54-29.55 129.94-30.1 131.24-30.1L131.24-30.1ZM132.14-4.7L138.34-4.7Q140.19-4.7 140.96-5.75 141.74-6.8 141.74-8L141.74-8 141.74-22.1Q141.74-23.35 140.96-24.38 140.19-25.4 138.34-25.4L138.34-25.4 132.14-25.4Q130.29-25.4 129.51-24.38 128.74-23.35 128.74-22.1L128.74-22.1 128.74-8Q128.74-6.8 129.51-5.75 130.29-4.7 132.14-4.7L132.14-4.7ZM159.03-21.75L159.03-2.1Q159.03 0.3 156.28 0.3L156.28 0.3Q153.53 0.3 153.53-2.1L153.53-2.1 153.53-22.2Q153.53-24.25 154.18-25.75 154.83-27.25 156.23-28.2L156.23-28.2Q158.88-30.1 161.53-30.1L161.53-30.1 169.58-30.1Q172.13-30.1 174.88-28.2L174.88-28.2Q177.58-26.3 177.58-22.2L177.58-22.2 177.58-2.1Q177.58 0.3 174.83 0.3L174.83 0.3Q172.08 0.3 172.08-2.1L172.08-2.1 172.08-21.75Q172.08-23.05 171.28-24.25L171.28-24.25 171.33-24.2Q170.68-25.4 168.68-25.4L168.68-25.4 162.43-25.4Q160.38-25.4 159.73-24.2L159.73-24.2Q159.03-23.15 159.03-21.75L159.03-21.75ZM189.73-37.8L189.73-1.95Q189.73 0.4 186.98 0.4L186.98 0.4Q184.18 0.4 184.18-1.95L184.18-1.95 184.18-37.8Q184.18-40.15 186.98-40.15L186.98-40.15Q189.73-40.15 189.73-37.8L189.73-37.8ZM202.13-22.15L202.13-8Q202.13-6.8 202.9-5.75 203.68-4.7 205.53-4.7L205.53-4.7 211.78-4.7Q213.63-4.7 214.4-5.63 215.18-6.55 215.18-7.75L215.18-7.75 215.18-8.3Q215.18-10.65 217.93-10.65L217.93-10.65Q220.68-10.65 220.68-8.3L220.68-8.3 220.68-7.7Q220.68-5.6 220-4.25 219.33-2.9 217.98-1.9L217.98-1.9Q215.33 0 212.68 0L212.68 0 204.28 0Q201.63 0 199.13-1.9L199.13-1.9Q197.93-2.9 197.28-4.42 196.63-5.95 196.63-7.95L196.63-7.95 196.63-22.2Q196.63-26.25 199.13-28.2L199.13-28.2Q200.38-29.1 201.7-29.63 203.03-30.15 204.28-30.15L204.28-30.15 212.68-30.15Q213.88-30.15 215.33-29.68 216.78-29.2 218.03-28.4L218.03-28.4Q219.23-27.55 219.95-26.05 220.68-24.55 220.68-22.5L220.68-22.5 220.68-15.75Q220.68-14.6 220-13.7 219.33-12.8 217.53-12.8L217.53-12.8 206.73-12.8Q204.93-12.8 204.83-15.15L204.83-15.15Q204.83-17.5 206.73-17.5L206.73-17.5 215.23-17.5 215.18-22.15Q215.18-23.4 214.4-24.43 213.63-25.45 211.78-25.45L211.78-25.45 205.53-25.45Q203.68-25.45 202.9-24.43 202.13-23.4 202.13-22.15L202.13-22.15ZM235.93-17.5L243.28-17.5Q244.53-17.5 245.95-16.93 247.38-16.35 248.63-15.5L248.63-15.5 248.58-15.5Q249.88-14.55 250.58-13.05 251.28-11.55 251.28-9.45L251.28-9.45 251.28-7.95Q251.28-3.85 248.58-1.9L248.58-1.9Q247.28-0.9 245.93-0.45 244.58 0 243.28 0L243.28 0 234.78 0Q233.48 0 232.13-0.45 230.78-0.9 229.48-1.9L229.48-1.9Q226.78-3.8 226.78-7.95L226.78-7.95 226.78-8.55Q226.78-10.7 229.53-10.65L229.53-10.65Q232.33-10.65 232.33-8.55L232.33-8.55 232.33-8Q232.33-6.8 233.08-5.75 233.83-4.7 235.73-4.7L235.73-4.7 242.33-4.7Q244.23-4.7 244.98-5.75 245.73-6.8 245.73-8L245.73-8 245.73-9.4Q245.73-10.05 245.55-10.65 245.38-11.25 244.98-11.73 244.58-12.2 243.93-12.5 243.28-12.8 242.33-12.8L242.33-12.8 235.03-12.8Q232.48-12.8 229.68-14.6L229.68-14.6Q227.03-16.3 227.03-20.45L227.03-20.45 227.03-22.15Q227.03-24.15 227.73-25.68 228.43-27.2 229.73-28.15L229.73-28.15 229.68-28.15Q230.93-29 232.33-29.55 233.73-30.1 235.03-30.1L235.03-30.1 243.03-30.1Q244.33-30.1 245.7-29.55 247.08-29 248.38-28.15L248.38-28.15 248.33-28.15Q249.63-27.2 250.33-25.68 251.03-24.15 251.03-22.15L251.03-22.15 251.03-21.7Q251.03-20.65 250.33-20.18 249.63-19.7 248.28-19.65L248.28-19.65Q245.53-19.6 245.53-21.7L245.53-21.7 245.53-22.1Q245.53-23.35 244.75-24.38 243.98-25.4 242.13-25.4L242.13-25.4 235.93-25.4Q234.08-25.4 233.3-24.38 232.53-23.35 232.53-22.1L232.53-22.1 232.53-20.9Q232.53-19.6 233.3-18.55 234.08-17.5 235.93-17.5L235.93-17.5ZM266.67-17.5L274.02-17.5Q275.27-17.5 276.7-16.93 278.12-16.35 279.37-15.5L279.37-15.5 279.32-15.5Q280.62-14.55 281.32-13.05 282.02-11.55 282.02-9.45L282.02-9.45 282.02-7.95Q282.02-3.85 279.32-1.9L279.32-1.9Q278.02-0.9 276.67-0.45 275.32 0 274.02 0L274.02 0 265.52 0Q264.22 0 262.87-0.45 261.52-0.9 260.22-1.9L260.22-1.9Q257.52-3.8 257.52-7.95L257.52-7.95 257.52-8.55Q257.52-10.7 260.27-10.65L260.27-10.65Q263.07-10.65 263.07-8.55L263.07-8.55 263.07-8Q263.07-6.8 263.82-5.75 264.57-4.7 266.47-4.7L266.47-4.7 273.07-4.7Q274.97-4.7 275.72-5.75 276.47-6.8 276.47-8L276.47-8 276.47-9.4Q276.47-10.05 276.3-10.65 276.12-11.25 275.72-11.73 275.32-12.2 274.67-12.5 274.02-12.8 273.07-12.8L273.07-12.8 265.77-12.8Q263.22-12.8 260.42-14.6L260.42-14.6Q257.77-16.3 257.77-20.45L257.77-20.45 257.77-22.15Q257.77-24.15 258.47-25.68 259.17-27.2 260.47-28.15L260.47-28.15 260.42-28.15Q261.67-29 263.07-29.55 264.47-30.1 265.77-30.1L265.77-30.1 273.77-30.1Q275.07-30.1 276.45-29.55 277.82-29 279.12-28.15L279.12-28.15 279.07-28.15Q280.37-27.2 281.07-25.68 281.77-24.15 281.77-22.15L281.77-22.15 281.77-21.7Q281.77-20.65 281.07-20.18 280.37-19.7 279.02-19.65L279.02-19.65Q276.27-19.6 276.27-21.7L276.27-21.7 276.27-22.1Q276.27-23.35 275.5-24.38 274.72-25.4 272.87-25.4L272.87-25.4 266.67-25.4Q264.82-25.4 264.05-24.38 263.27-23.35 263.27-22.1L263.27-22.1 263.27-20.9Q263.27-19.6 264.05-18.55 264.82-17.5 266.67-17.5L266.67-17.5Z" opacity="1" transform="matrix(1,0,0,1,0,0)" fill="#000000" class="wordmark-text-0" data-fill-palette-color="quaternary" id="text-0"></path></svg></g></svg></g><g transform="matrix(1,0,0,1,0,38.716400591081054)"><svg viewBox="0 0 213.1584412271571 13.654621307964142" height="13.654621307964142" width="213.1584412271571"><g transform="matrix(1,0,0,1,0,0)"><svg width="213.1584412271571" viewBox="3.8 -38.85 771.85 49.45" height="13.654621307964142" data-palette-color="#000000"><path d="M24.2 0L19.2 0 12.5-14.75Q12.15-14.7 11.45-14.7L11.45-14.7 8.35-14.7 8.35 0 3.8 0 3.8-34.45 10.7-34.45Q16.75-34.45 19.7-31.95 22.65-29.45 22.65-24.75L22.65-24.75Q22.65-21.45 21.1-19.07 19.55-16.7 16.65-15.6L16.65-15.6 24.2 0ZM11.05-18.2Q14.65-18.2 16.25-19.78 17.85-21.35 17.85-24.75L17.85-24.75Q17.85-27.9 16.2-29.38 14.55-30.85 10.65-30.85L10.65-30.85 8.35-30.85 8.35-18.2 11.05-18.2ZM45.8-13.95Q45.8-12.85 45.7-11.65L45.7-11.65 31.9-11.65Q32.1-6.9 33.47-4.95 34.85-3 37.4-3L37.4-3Q39.05-3 40.35-3.53 41.65-4.05 43.05-5.2L43.05-5.2 45-2.55Q41.7 0.6 37.25 0.6L37.25 0.6Q32.55 0.6 29.95-2.88 27.35-6.35 27.35-12.9L27.35-12.9Q27.35-19.45 29.82-23.18 32.3-26.9 36.8-26.9L36.8-26.9Q41.15-26.9 43.47-23.63 45.8-20.35 45.8-13.95L45.8-13.95ZM41.55-14.9L41.55-15.25Q41.55-19.55 40.4-21.5 39.25-23.45 36.8-23.45L36.8-23.45Q34.6-23.45 33.35-21.48 32.1-19.5 31.9-14.9L31.9-14.9 41.55-14.9ZM63.7-26.35L68.09-26.35 60.9 0 55.7 0 48.3-26.35 52.84-26.35 58.3-3.9 63.7-26.35ZM80.74-26.9Q85.44-26.9 88.02-23.43 90.59-19.95 90.59-13.2L90.59-13.2Q90.59-6.85 87.97-3.13 85.34 0.6 80.69 0.6L80.69 0.6Q76.04 0.6 73.44-3.05 70.84-6.7 70.84-13.15L70.84-13.15Q70.84-19.8 73.44-23.35 76.04-26.9 80.74-26.9L80.74-26.9ZM80.74-23.35Q78.09-23.35 76.79-20.98 75.49-18.6 75.49-13.15L75.49-13.15Q75.49-7.75 76.79-5.35 78.09-2.95 80.69-2.95L80.69-2.95Q83.34-2.95 84.64-5.35 85.94-7.75 85.94-13.2L85.94-13.2Q85.94-18.6 84.64-20.98 83.34-23.35 80.74-23.35L80.74-23.35ZM101.09 0.6Q98.89 0.6 97.56-0.8 96.24-2.2 96.24-4.6L96.24-4.6 96.24-36.95 100.64-37.45 100.64-4.7Q100.64-3.05 102.04-3.05L102.04-3.05Q102.69-3.05 103.29-3.3L103.29-3.3 104.29-0.3Q102.84 0.6 101.09 0.6L101.09 0.6ZM125.34-26.35L125.34 0 121.54 0 121.24-3.7Q119.99-1.55 118.41-0.48 116.84 0.6 114.74 0.6L114.74 0.6Q111.89 0.6 110.19-1.35 108.49-3.3 108.49-6.45L108.49-6.45 108.49-26.35 112.89-26.35 112.89-6.9Q112.89-2.85 115.74-2.85L115.74-2.85Q117.39-2.85 118.64-4.03 119.89-5.2 120.94-7.3L120.94-7.3 120.94-26.35 125.34-26.35ZM142.59-3.95L144.29-1.2Q142.04 0.6 139.24 0.6L139.24 0.6Q136.29 0.6 134.66-1.15 133.04-2.9 133.04-5.85L133.04-5.85 133.04-22.9 129.49-22.9 129.49-26.35 133.04-26.35 133.04-32.3 137.44-32.85 137.44-26.35 142.54-26.35 142.09-22.9 137.44-22.9 137.44-5.8Q137.44-3.05 139.79-3.05L139.79-3.05Q140.59-3.05 141.19-3.25 141.79-3.45 142.59-3.95L142.59-3.95ZM147.93-26.35L152.33-26.35 152.33 0 147.93 0 147.93-26.35ZM150.08-38.85Q151.43-38.85 152.23-38 153.03-37.15 153.03-35.8L153.03-35.8Q153.03-34.55 152.21-33.7 151.38-32.85 150.08-32.85L150.08-32.85Q148.78-32.85 147.96-33.7 147.13-34.55 147.13-35.8L147.13-35.8Q147.13-37.1 147.96-37.98 148.78-38.85 150.08-38.85L150.08-38.85ZM168.13-26.9Q172.83-26.9 175.41-23.43 177.98-19.95 177.98-13.2L177.98-13.2Q177.98-6.85 175.36-3.13 172.73 0.6 168.08 0.6L168.08 0.6Q163.43 0.6 160.83-3.05 158.23-6.7 158.23-13.15L158.23-13.15Q158.23-19.8 160.83-23.35 163.43-26.9 168.13-26.9L168.13-26.9ZM168.13-23.35Q165.48-23.35 164.18-20.98 162.88-18.6 162.88-13.15L162.88-13.15Q162.88-7.75 164.18-5.35 165.48-2.95 168.08-2.95L168.08-2.95Q170.73-2.95 172.03-5.35 173.33-7.75 173.33-13.2L173.33-13.2Q173.33-18.6 172.03-20.98 170.73-23.35 168.13-23.35L168.13-23.35ZM194.63-26.9Q197.48-26.9 199.18-24.85 200.88-22.8 200.88-19.35L200.88-19.35 200.88 0 196.48 0 196.48-18.75Q196.48-21.3 195.75-22.38 195.03-23.45 193.58-23.45L193.58-23.45Q190.73-23.45 188.28-18.55L188.28-18.55 188.28 0 183.88 0 183.88-26.35 187.68-26.35 188.03-22.4Q189.33-24.6 190.88-25.75 192.43-26.9 194.63-26.9L194.63-26.9ZM207.98-26.35L212.38-26.35 212.38 0 207.98 0 207.98-26.35ZM210.13-38.85Q211.48-38.85 212.28-38 213.08-37.15 213.08-35.8L213.08-35.8Q213.08-34.55 212.25-33.7 211.43-32.85 210.13-32.85L210.13-32.85Q208.83-32.85 208-33.7 207.18-34.55 207.18-35.8L207.18-35.8Q207.18-37.1 208-37.98 208.83-38.85 210.13-38.85L210.13-38.85ZM217.87-26.35L232.92-26.35 232.92-22.95 221.57-3.7 233.02-3.7 232.57 0 216.92 0 216.92-3.3 228.27-22.6 217.87-22.6 217.87-26.35ZM237.77-26.35L242.17-26.35 242.17 0 237.77 0 237.77-26.35ZM239.92-38.85Q241.27-38.85 242.07-38 242.87-37.15 242.87-35.8L242.87-35.8Q242.87-34.55 242.05-33.7 241.22-32.85 239.92-32.85L239.92-32.85Q238.62-32.85 237.8-33.7 236.97-34.55 236.97-35.8L236.97-35.8Q236.97-37.1 237.8-37.98 238.62-38.85 239.92-38.85L239.92-38.85ZM260.22-26.9Q263.07-26.9 264.77-24.85 266.47-22.8 266.47-19.35L266.47-19.35 266.47 0 262.07 0 262.07-18.75Q262.07-21.3 261.34-22.38 260.62-23.45 259.17-23.45L259.17-23.45Q256.32-23.45 253.87-18.55L253.87-18.55 253.87 0 249.47 0 249.47-26.35 253.27-26.35 253.62-22.4Q254.92-24.6 256.47-25.75 258.02-26.9 260.22-26.9L260.22-26.9ZM290.22-29.15L291.52-25.2Q290.37-24.7 288.94-24.55 287.52-24.4 285.31-24.4L285.31-24.4Q289.17-22.3 289.17-17.7L289.17-17.7Q289.17-13.65 286.92-11.23 284.67-8.8 280.72-8.8L280.72-8.8Q279.27-8.8 278.06-9.3L278.06-9.3Q277.56-8.9 277.29-8.22 277.02-7.55 277.02-6.8L277.02-6.8Q277.02-5.7 277.62-5.08 278.22-4.45 279.77-4.45L279.77-4.45 282.67-4.45Q285.12-4.45 286.97-3.5 288.81-2.55 289.79-0.93 290.77 0.7 290.77 2.65L290.77 2.65Q290.77 6.25 288.09 8.43 285.42 10.6 280.37 10.6L280.37 10.6Q275.17 10.6 272.99 8.58 270.81 6.55 270.81 2.65L270.81 2.65 274.72 2.65Q274.72 5.1 275.92 6.13 277.12 7.15 280.42 7.15L280.42 7.15Q283.62 7.15 285.02 6.08 286.42 5 286.42 2.95L286.42 2.95Q286.42-0.95 281.81-0.95L281.81-0.95 279.97-0.95Q276.37-0.95 274.72-2.27 273.06-3.6 273.06-5.85L273.06-5.85Q273.06-8.25 275.67-10.35L275.67-10.35Q271.81-12.7 271.81-17.75L271.81-17.75Q271.81-21.9 274.27-24.4 276.72-26.9 280.62-26.9L280.62-26.9Q284.12-26.9 286.12-27.45 288.12-28 290.22-29.15L290.22-29.15ZM280.56-23.75Q278.37-23.75 277.27-22.3 276.17-20.85 276.17-17.75L276.17-17.75Q276.17-15.05 277.31-13.4 278.47-11.75 280.52-11.75L280.52-11.75Q282.72-11.75 283.77-13.15 284.81-14.55 284.81-17.8L284.81-17.8Q284.81-23.75 280.56-23.75L280.56-23.75ZM317.06-35Q319.71-35 321.74-34.08 323.76-33.15 325.76-31.25L325.76-31.25 323.26-28.7Q321.66-30.1 320.29-30.7 318.91-31.3 317.06-31.3L317.06-31.3Q313.61-31.3 311.44-28.1 309.26-24.9 309.26-17.25L309.26-17.25Q309.26-11.9 310.09-8.83 310.91-5.75 312.54-4.45 314.16-3.15 316.66-3.15L316.66-3.15Q319.36-3.15 321.61-4.65L321.61-4.65 321.61-15.35 316.91-15.35 316.41-19.05 326.01-19.05 326.01-2.45Q321.61 0.6 316.61 0.6L316.61 0.6Q304.46 0.6 304.46-17.25L304.46-17.25Q304.46-23.1 306.16-27.1 307.86-31.1 310.71-33.05 313.56-35 317.06-35L317.06-35ZM340.76-26.9Q345.46-26.9 348.03-23.43 350.61-19.95 350.61-13.2L350.61-13.2Q350.61-6.85 347.98-3.13 345.36 0.6 340.71 0.6L340.71 0.6Q336.06 0.6 333.46-3.05 330.86-6.7 330.86-13.15L330.86-13.15Q330.86-19.8 333.46-23.35 336.06-26.9 340.76-26.9L340.76-26.9ZM340.76-23.35Q338.11-23.35 336.81-20.98 335.51-18.6 335.51-13.15L335.51-13.15Q335.51-7.75 336.81-5.35 338.11-2.95 340.71-2.95L340.71-2.95Q343.36-2.95 344.66-5.35 345.96-7.75 345.96-13.2L345.96-13.2Q345.96-18.6 344.66-20.98 343.36-23.35 340.76-23.35L340.76-23.35ZM368.75-26.35L373.16-26.35 365.96 0 360.75 0 353.36-26.35 357.91-26.35 363.36-3.9 368.75-26.35ZM394.35-13.95Q394.35-12.85 394.25-11.65L394.25-11.65 380.45-11.65Q380.65-6.9 382.03-4.95 383.4-3 385.95-3L385.95-3Q387.6-3 388.9-3.53 390.2-4.05 391.6-5.2L391.6-5.2 393.55-2.55Q390.25 0.6 385.8 0.6L385.8 0.6Q381.1 0.6 378.5-2.88 375.9-6.35 375.9-12.9L375.9-12.9Q375.9-19.45 378.38-23.18 380.85-26.9 385.35-26.9L385.35-26.9Q389.7-26.9 392.03-23.63 394.35-20.35 394.35-13.95L394.35-13.95ZM390.1-14.9L390.1-15.25Q390.1-19.55 388.95-21.5 387.8-23.45 385.35-23.45L385.35-23.45Q383.15-23.45 381.9-21.48 380.65-19.5 380.45-14.9L380.45-14.9 390.1-14.9ZM410.1-26.9Q411.2-26.9 412.1-26.6L412.1-26.6 411.35-22.35Q410.35-22.6 409.55-22.6L409.55-22.6Q407.6-22.6 406.35-20.85 405.1-19.1 404.4-15.5L404.4-15.5 404.4 0 400 0 400-26.35 403.8-26.35 404.15-21.45Q406-26.9 410.1-26.9L410.1-26.9ZM426.9-26.9Q429.75-26.9 431.45-24.85 433.15-22.8 433.15-19.35L433.15-19.35 433.15 0 428.75 0 428.75-18.75Q428.75-21.3 428.02-22.38 427.3-23.45 425.85-23.45L425.85-23.45Q423-23.45 420.55-18.55L420.55-18.55 420.55 0 416.15 0 416.15-26.35 419.95-26.35 420.3-22.4Q421.6-24.6 423.15-25.75 424.7-26.9 426.9-26.9L426.9-26.9ZM455.45-5.6Q455.45-4.2 455.85-3.53 456.25-2.85 457.15-2.45L457.15-2.45 456.2 0.6Q454.35 0.3 453.27-0.58 452.2-1.45 451.75-3.2L451.75-3.2Q449.6 0.6 445.45 0.6L445.45 0.6Q442.2 0.6 440.27-1.58 438.35-3.75 438.35-7.35L438.35-7.35Q438.35-11.55 440.95-13.78 443.55-16 448.5-16L448.5-16 451.1-16 451.1-18.4Q451.1-21 450.07-22.2 449.05-23.4 446.9-23.4L446.9-23.4Q444.35-23.4 440.95-22.05L440.95-22.05 439.85-25.15Q443.9-26.9 447.45-26.9L447.45-26.9Q451.5-26.9 453.47-24.73 455.45-22.55 455.45-18.6L455.45-18.6 455.45-5.6ZM446.35-2.7Q449.45-2.7 451.1-6.9L451.1-6.9 451.1-13.05 449-13.05Q445.85-13.05 444.37-11.7 442.9-10.35 442.9-7.55L442.9-7.55Q442.9-5.15 443.8-3.93 444.7-2.7 446.35-2.7L446.35-2.7ZM473.54-26.9Q476.39-26.9 478.09-24.85 479.79-22.8 479.79-19.35L479.79-19.35 479.79 0 475.39 0 475.39-18.75Q475.39-21.3 474.67-22.38 473.94-23.45 472.49-23.45L472.49-23.45Q469.64-23.45 467.19-18.55L467.19-18.55 467.19 0 462.79 0 462.79-26.35 466.59-26.35 466.94-22.4Q468.24-24.6 469.79-25.75 471.34-26.9 473.54-26.9L473.54-26.9ZM495.34-26.9Q497.34-26.9 498.94-26.25 500.54-25.6 502.04-24.1L502.04-24.1 500.04-21.5Q498.89-22.45 497.82-22.9 496.74-23.35 495.49-23.35L495.49-23.35Q490.19-23.35 490.19-13.05L490.19-13.05Q490.19-7.7 491.54-5.4 492.89-3.1 495.44-3.1L495.44-3.1Q496.69-3.1 497.72-3.55 498.74-4 499.99-4.95L499.99-4.95 502.04-2.3Q499.04 0.6 495.39 0.6L495.39 0.6Q490.69 0.6 488.09-2.8 485.49-6.2 485.49-12.95L485.49-12.95Q485.49-19.55 488.14-23.23 490.79-26.9 495.34-26.9L495.34-26.9ZM523.49-13.95Q523.49-12.85 523.39-11.65L523.39-11.65 509.59-11.65Q509.79-6.9 511.16-4.95 512.54-3 515.09-3L515.09-3Q516.74-3 518.04-3.53 519.34-4.05 520.74-5.2L520.74-5.2 522.69-2.55Q519.39 0.6 514.94 0.6L514.94 0.6Q510.24 0.6 507.64-2.88 505.04-6.35 505.04-12.9L505.04-12.9Q505.04-19.45 507.51-23.18 509.99-26.9 514.49-26.9L514.49-26.9Q518.84-26.9 521.16-23.63 523.49-20.35 523.49-13.95L523.49-13.95ZM519.24-14.9L519.24-15.25Q519.24-19.55 518.09-21.5 516.94-23.45 514.49-23.45L514.49-23.45Q512.29-23.45 511.04-21.48 509.79-19.5 509.59-14.9L509.59-14.9 519.24-14.9ZM546.58-34.45Q552.63-34.45 555.76-31.75 558.88-29.05 558.88-23.8L558.88-23.8Q558.88-18.2 555.71-15.48 552.53-12.75 546.68-12.75L546.68-12.75 544.43-12.75 544.43 0 539.88 0 539.88-34.45 546.58-34.45ZM546.68-16.35Q550.53-16.35 552.33-17.98 554.13-19.6 554.13-23.75L554.13-23.75Q554.13-27.5 552.31-29.18 550.48-30.85 546.68-30.85L546.68-30.85 544.43-30.85 544.43-16.35 546.68-16.35ZM578.73-5.6Q578.73-4.2 579.13-3.53 579.53-2.85 580.43-2.45L580.43-2.45 579.48 0.6Q577.63 0.3 576.55-0.58 575.48-1.45 575.03-3.2L575.03-3.2Q572.88 0.6 568.73 0.6L568.73 0.6Q565.48 0.6 563.55-1.58 561.63-3.75 561.63-7.35L561.63-7.35Q561.63-11.55 564.23-13.78 566.83-16 571.78-16L571.78-16 574.38-16 574.38-18.4Q574.38-21 573.35-22.2 572.33-23.4 570.18-23.4L570.18-23.4Q567.63-23.4 564.23-22.05L564.23-22.05 563.13-25.15Q567.18-26.9 570.73-26.9L570.73-26.9Q574.78-26.9 576.75-24.73 578.73-22.55 578.73-18.6L578.73-18.6 578.73-5.6ZM569.63-2.7Q572.73-2.7 574.38-6.9L574.38-6.9 574.38-13.05 572.28-13.05Q569.13-13.05 567.65-11.7 566.18-10.35 566.18-7.55L566.18-7.55Q566.18-5.15 567.08-3.93 567.98-2.7 569.63-2.7L569.63-2.7ZM596.18-26.9Q597.28-26.9 598.18-26.6L598.18-26.6 597.43-22.35Q596.43-22.6 595.63-22.6L595.63-22.6Q593.68-22.6 592.43-20.85 591.18-19.1 590.48-15.5L590.48-15.5 590.48 0 586.08 0 586.08-26.35 589.88-26.35 590.23-21.45Q592.08-26.9 596.18-26.9L596.18-26.9ZM612.17-3.95L613.87-1.2Q611.62 0.6 608.82 0.6L608.82 0.6Q605.87 0.6 604.25-1.15 602.62-2.9 602.62-5.85L602.62-5.85 602.62-22.9 599.07-22.9 599.07-26.35 602.62-26.35 602.62-32.3 607.02-32.85 607.02-26.35 612.12-26.35 611.67-22.9 607.02-22.9 607.02-5.8Q607.02-3.05 609.37-3.05L609.37-3.05Q610.17-3.05 610.77-3.25 611.37-3.45 612.17-3.95L612.17-3.95ZM617.52-26.35L621.92-26.35 621.92 0 617.52 0 617.52-26.35ZM619.67-38.85Q621.02-38.85 621.82-38 622.62-37.15 622.62-35.8L622.62-35.8Q622.62-34.55 621.8-33.7 620.97-32.85 619.67-32.85L619.67-32.85Q618.37-32.85 617.55-33.7 616.72-34.55 616.72-35.8L616.72-35.8Q616.72-37.1 617.55-37.98 618.37-38.85 619.67-38.85L619.67-38.85ZM637.67-26.9Q639.67-26.9 641.27-26.25 642.87-25.6 644.37-24.1L644.37-24.1 642.37-21.5Q641.22-22.45 640.14-22.9 639.07-23.35 637.82-23.35L637.82-23.35Q632.52-23.35 632.52-13.05L632.52-13.05Q632.52-7.7 633.87-5.4 635.22-3.1 637.77-3.1L637.77-3.1Q639.02-3.1 640.04-3.55 641.07-4 642.32-4.95L642.32-4.95 644.37-2.3Q641.37 0.6 637.72 0.6L637.72 0.6Q633.02 0.6 630.42-2.8 627.82-6.2 627.82-12.95L627.82-12.95Q627.82-19.55 630.47-23.23 633.12-26.9 637.67-26.9L637.67-26.9ZM648.77-26.35L653.17-26.35 653.17 0 648.77 0 648.77-26.35ZM650.92-38.85Q652.27-38.85 653.07-38 653.87-37.15 653.87-35.8L653.87-35.8Q653.87-34.55 653.04-33.7 652.22-32.85 650.92-32.85L650.92-32.85Q649.62-32.85 648.79-33.7 647.97-34.55 647.97-35.8L647.97-35.8Q647.97-37.1 648.79-37.98 649.62-38.85 650.92-38.85L650.92-38.85ZM671.11-26.9Q674.96-26.9 676.96-23.38 678.96-19.85 678.96-13.2L678.96-13.2Q678.96-6.75 676.76-3.08 674.56 0.6 670.46 0.6L670.46 0.6Q667.06 0.6 664.86-2.3L664.86-2.3 664.86 10.05 660.46 10.6 660.46-26.35 664.31-26.35 664.56-22.85Q667.06-26.9 671.11-26.9L671.11-26.9ZM669.51-3Q671.86-3 673.09-5.43 674.31-7.85 674.31-13.2L674.31-13.2Q674.31-18.65 673.26-21.03 672.21-23.4 669.96-23.4L669.96-23.4Q667.11-23.4 664.86-19.55L664.86-19.55 664.86-6.05Q666.76-3 669.51-3L669.51-3ZM700.06-5.6Q700.06-4.2 700.46-3.53 700.86-2.85 701.76-2.45L701.76-2.45 700.81 0.6Q698.96 0.3 697.89-0.58 696.81-1.45 696.36-3.2L696.36-3.2Q694.21 0.6 690.06 0.6L690.06 0.6Q686.81 0.6 684.89-1.58 682.96-3.75 682.96-7.35L682.96-7.35Q682.96-11.55 685.56-13.78 688.16-16 693.11-16L693.11-16 695.71-16 695.71-18.4Q695.71-21 694.69-22.2 693.66-23.4 691.51-23.4L691.51-23.4Q688.96-23.4 685.56-22.05L685.56-22.05 684.46-25.15Q688.51-26.9 692.06-26.9L692.06-26.9Q696.11-26.9 698.09-24.73 700.06-22.55 700.06-18.6L700.06-18.6 700.06-5.6ZM690.96-2.7Q694.06-2.7 695.71-6.9L695.71-6.9 695.71-13.05 693.61-13.05Q690.46-13.05 688.99-11.7 687.51-10.35 687.51-7.55L687.51-7.55Q687.51-5.15 688.41-3.93 689.31-2.7 690.96-2.7L690.96-2.7ZM717.36-3.95L719.06-1.2Q716.81 0.6 714.01 0.6L714.01 0.6Q711.06 0.6 709.43-1.15 707.81-2.9 707.81-5.85L707.81-5.85 707.81-22.9 704.26-22.9 704.26-26.35 707.81-26.35 707.81-32.3 712.21-32.85 712.21-26.35 717.31-26.35 716.86-22.9 712.21-22.9 712.21-5.8Q712.21-3.05 714.56-3.05L714.56-3.05Q715.36-3.05 715.96-3.25 716.56-3.45 717.36-3.95L717.36-3.95ZM722.71-26.35L727.11-26.35 727.11 0 722.71 0 722.71-26.35ZM724.86-38.85Q726.21-38.85 727.01-38 727.81-37.15 727.81-35.8L727.81-35.8Q727.81-34.55 726.98-33.7 726.16-32.85 724.86-32.85L724.86-32.85Q723.56-32.85 722.73-33.7 721.91-34.55 721.91-35.8L721.91-35.8Q721.91-37.1 722.73-37.98 723.56-38.85 724.86-38.85L724.86-38.85ZM742.9-26.9Q747.6-26.9 750.18-23.43 752.75-19.95 752.75-13.2L752.75-13.2Q752.75-6.85 750.13-3.13 747.5 0.6 742.85 0.6L742.85 0.6Q738.2 0.6 735.6-3.05 733-6.7 733-13.15L733-13.15Q733-19.8 735.6-23.35 738.2-26.9 742.9-26.9L742.9-26.9ZM742.9-23.35Q740.25-23.35 738.95-20.98 737.65-18.6 737.65-13.15L737.65-13.15Q737.65-7.75 738.95-5.35 740.25-2.95 742.85-2.95L742.85-2.95Q745.5-2.95 746.8-5.35 748.1-7.75 748.1-13.2L748.1-13.2Q748.1-18.6 746.8-20.98 745.5-23.35 742.9-23.35L742.9-23.35ZM769.4-26.9Q772.25-26.9 773.95-24.85 775.65-22.8 775.65-19.35L775.65-19.35 775.65 0 771.25 0 771.25-18.75Q771.25-21.3 770.53-22.38 769.8-23.45 768.35-23.45L768.35-23.45Q765.5-23.45 763.05-18.55L763.05-18.55 763.05 0 758.65 0 758.65-26.35 762.45-26.35 762.8-22.4Q764.1-24.6 765.65-25.75 767.2-26.9 769.4-26.9L769.4-26.9Z" opacity="1" transform="matrix(1,0,0,1,0,0)" fill="#000000" class="slogan-text-1" data-fill-palette-color="quaternary" id="text-1"></path></svg></g></svg></g></svg></g></svg></g><g transform="matrix(1,0,0,1,70.39076613958707,0)"><svg viewBox="0 0 72.37690894798298 72.37675226448047" height="72.37675226448047" width="72.37690894798298"><g><svg xmlns="http://www.w3.org/2000/svg" xmlns:xlink="http://www.w3.org/1999/xlink" version="1.1" x="0" y="0" viewBox="22.250249999999998 19.99937499338251 57.750500026471855 57.750375006617496" enable-background="new 0 0 100 100" xml:space="preserve" height="72.37675226448047" width="72.37690894798298" class="icon-icon-0" data-fill-palette-color="quaternary" id="icon-0"><g fill="#000000" data-fill-palette-color="quaternary"><path d="M38.381 68.164c-1.805 1.805-4.742 1.805-6.546 0s-1.805-4.74 0-6.545l2.36-2.36c-1.65-2.782-2.513-5.903-2.596-9.041l-5.583 5.583c-5.021 5.021-5.021 13.161 0 18.183 5.022 5.021 13.163 5.021 18.184 0l5.583-5.582c-3.139-0.083-6.259-0.945-9.042-2.596L38.381 68.164z" fill="#000000" data-fill-palette-color="quaternary"></path><g fill="#000000" data-fill-palette-color="quaternary"><path d="M57.813 42.188c-1.05-1.049-2.236-1.874-3.503-2.477l-0.636 0.636-4.643 4.644c-0.486 0.485-0.825 1.063-1.025 1.678 1.434-0.278 2.976 0.133 4.084 1.241 1.11 1.109 1.522 2.654 1.242 4.091 0.627-0.203 1.201-0.55 1.68-1.028l5.278-5.279C59.687 44.427 58.862 43.237 57.813 42.188z" fill="#000000" data-fill-palette-color="quaternary"></path><path d="M74.688 25.312c-7.084-7.083-18.569-7.084-25.652 0l-10.26 10.261c-7.085 7.083-7.084 18.567 0 25.65 7.083 7.084 18.568 7.085 25.651 0l10.262-10.26C81.772 43.879 81.771 32.396 74.688 25.312zM66.479 42.755l-1.593 1.594h0.001l-8.639 8.64c-1.042 1.042-2.353 1.65-3.71 1.84-0.005 0.008-0.009 0.016-0.014 0.025-1.965 0.278-4.031-0.33-5.541-1.838-1.507-1.509-2.115-3.575-1.837-5.54 0.009-0.006 0.021-0.01 0.03-0.017 0.189-1.355 0.797-2.664 1.839-3.706l5.792-5.792c0-0.001 0-0.002 0-0.002l4.437-4.438c2.545-2.547 6.688-2.547 9.234 0C69.025 36.065 69.025 40.208 66.479 42.755z" fill="#000000" data-fill-palette-color="quaternary"></path></g></g></svg></g></svg></g><g></g></svg></g></svg></g></svg></g></svg></g><defs></defs></svg><rect width="342.85155851775386" height="342.85155851775386" fill="none" stroke="none" visibility="hidden"></rect></g></svg></g></svg>