<?xml version="1.0" encoding="UTF-8"?>
<svg width="404px" height="137.597332px" viewBox="0 0 404 137.597332" version="1.1" xmlns="http://www.w3.org/2000/svg" xmlns:xlink="http://www.w3.org/1999/xlink">
    <title>Governance by Grape Logo</title>
    <defs>
        <path d="M35.9006211,17.9663709 C35.9006211,16.8198721 35.6116169,15.6935548 35.0637006,14.7005757 C34.5156664,13.7077132 33.7276017,12.8830693 32.7786906,12.3097032 C31.8297796,11.7363371 30.7533007,11.4342671 29.6574683,11.4339405 C28.5616359,11.4336255 27.4850389,11.7350539 26.5357738,12.3078367 C26.3337423,12.4291593 26.1385552,12.5627309 25.9512748,12.7077348 C25.0636105,12.0216786 24.0180499,11.593993 22.9211555,11.4681908 C21.824143,11.3424002 20.7149756,11.522996 19.7063519,11.9915813 C19.7625242,11.5356765 19.7908464,11.0764937 19.7913184,10.6168092 C19.7903744,9.7354703 19.6854643,8.85761938 19.4790664,8.00314642 C21.0285257,8.52973332 22.6484365,8.79442665 24.2775519,8.78724061 C29.3459243,8.78724061 33.6099467,6.33562518 34.8439676,3.01367155 C34.8892833,2.88847593 34.9104067,2.75510269 34.9060404,2.62129783 C34.9016742,2.4874813 34.871818,2.3559279 34.8183597,2.23430196 C34.7649015,2.11266436 34.6887857,2.00338067 34.5946146,1.91283199 C34.5003252,1.82227164 34.3897507,1.75224282 34.2693813,1.70684015 L34.2693813,1.70684015 C34.0343075,1.61772635 33.7752774,1.62792212 33.5472838,1.73525765 C33.3191722,1.84260485 33.1401525,2.03865755 33.0478694,2.28183944 C32.5982547,3.4945758 31.589159,4.37276501 30.9221717,4.84584161 C30.0244765,5.46893832 29.0380386,5.9391335 27.9995586,6.23892871 C26.7883133,6.59390241 25.5355288,6.76984354 24.2775519,6.76165427 C23.0205191,6.76984354 21.7685607,6.59389075 20.5581415,6.23892871 C19.8306155,6.02450263 19.1265732,5.73105351 18.4573437,5.36335261 C17.6988993,3.96915728 16.6494445,2.77199453 15.3874553,1.86103656 C14.7564607,1.40558673 14.0775544,1.02760257 13.3640715,0.734554753 C10.8954511,-0.279136663 8.1458158,-0.242386405 5.70276805,0.836952222 C3.25970849,1.91628502 1.31699568,3.95260371 0.289783207,6.51074974 C0.240630062,6.63659863 0.216293047,6.77154675 0.218235477,6.90748641 C0.220177907,7.04342607 0.248360837,7.17754592 0.301088478,7.30180829 C0.353817298,7.42605901 0.430003966,7.53788581 0.525074446,7.63055762 C0.62014375,7.72322944 0.732135553,7.79484482 0.854320985,7.84109907 L0.854320985,7.84109907 C1.08726856,7.92873134 1.34350052,7.91927051 1.56995996,7.81465306 C1.7964194,7.71004728 1.97575781,7.51831086 2.07082593,7.2791653 L2.07082593,7.26347501 C2.49159913,6.22306345 3.10412531,5.27956999 3.87343836,4.48687826 C4.64273961,3.69419818 5.55375797,3.0678351 6.55445144,2.64357919 C7.55513309,2.21932328 8.62590034,2.00549215 9.70558912,2.01427637 C10.7852661,2.0230606 11.8527291,2.25430853 12.8469556,2.69480301 C13.1703005,2.8380687 13.4847948,3.00216923 13.7886682,3.18617133 C15.1874299,4.03878946 16.3165408,5.30190971 17.0360422,6.81915422 C17.1060216,6.96813605 17.1709266,7.11711792 17.2333534,7.271326 C17.9458923,9.04814257 18.071572,11.0228551 17.5905669,12.882836 C16.5165662,11.976066 15.1857778,11.4670592 13.8060155,11.4353754 C12.4262532,11.4036915 11.075356,11.851127 9.96434763,12.7077348 C9.03443602,11.9863317 7.93116906,11.5495236 6.77774822,11.4461661 C5.62432741,11.3428202 4.46615082,11.5769495 3.4325446,12.1224697 C2.3989384,12.667955 1.53059212,13.5033313 0.924452604,14.5352736 C0.318318985,15.5672159 -0.00173778253,16.7551277 7.09654972e-06,17.9663709 C7.09654972e-06,18.0526967 7.09654972e-06,18.1415888 7.09654972e-06,18.2277979 C0.042720678,19.330084 0.351450035,20.4030893 0.897433242,21.3468394 C1.44341881,22.2905895 2.20887296,23.074287 3.12246392,23.6250218 C3.24985473,23.7008484 3.37225376,23.773992 3.51464352,23.8445691 C3.22325548,24.6605804 3.09077848,25.5294371 3.12500112,26.399927 C3.15921195,27.2703002 3.35944977,28.1248082 3.71391366,28.9130553 C4.06837758,29.7014191 4.56991618,30.4075402 5.18903906,30.9900055 C5.80815015,31.5724707 6.53234831,32.0196146 7.3190205,32.3049561 C7.05372429,33.1725296 6.96472183,34.0885155 7.05772478,34.9942355 C7.15072774,35.8999555 7.42368277,36.7752286 7.85907729,37.5640588 C8.29446001,38.3527728 8.88266452,39.0376622 9.58591608,39.574515 C10.2891794,40.1114843 11.0919481,40.4886343 11.94277,40.6817007 C11.6790433,41.653798 11.6344005,42.6765244 11.8122519,43.6696203 C11.9902096,44.6627161 12.3857761,45.5991167 12.9680329,46.4052124 C13.5501718,47.2114247 14.3030698,47.8652836 15.1676044,48.3154607 C16.0321389,48.7657541 16.9845903,49 17.9502586,49 C18.915927,49 19.8684964,48.7657541 20.733031,48.3154607 C21.5974475,47.8652836 22.3504635,47.2114247 22.9326023,46.4052124 C23.5148592,45.5991167 23.9104256,44.6627161 24.0882654,43.6696203 C24.2662231,42.6765244 24.2214976,41.653798 23.9578653,40.6817007 C24.8085928,40.4886343 25.6114086,40.1114843 26.3146248,39.574515 C27.017959,39.0376622 27.6061163,38.3527728 28.0415698,37.5640588 C28.4769053,36.7752286 28.7498604,35.8999555 28.8428515,34.9942355 C28.9358427,34.0885155 28.8468638,33.1725296 28.5815794,32.3049561 C29.368228,32.0196146 30.0924498,31.5724707 30.7115254,30.9900055 C31.3307191,30.4075402 31.8322577,29.7014191 32.186639,28.9130553 C32.5411383,28.1248082 32.7413998,27.2703002 32.7756224,26.399927 C32.809845,25.5294371 32.6773208,24.6605804 32.3859564,23.8445691 C33.4398956,23.308533 34.3283859,22.4729234 34.9499399,21.4335151 C35.5713757,20.3939901 35.9006211,19.1925461 35.9006211,17.9663709 L35.9006211,17.9663709 Z M19.13684,14.8300642 L19.1918323,14.7698695 C19.88903,14.0417004 20.8032464,13.5847574 21.7828398,13.4748671 C22.7624332,13.3650935 23.7485172,13.6090219 24.577413,14.1661728 C23.9822932,15.0371293 23.6008878,16.0478402 23.4667115,17.1092965 C23.3325352,18.1707529 23.4497182,19.2504077 23.8079938,20.2534192 C23.2339976,20.5448268 22.7064969,20.9274597 22.2442553,21.3876691 C21.5094127,20.6588001 20.616084,20.1277803 19.6414469,19.8404556 C19.1780252,19.7044343 18.7010325,19.6254579 18.2200274,19.6051597 C18.0799506,19.2257932 17.9892017,18.8284615 17.9502586,18.4237806 C17.9202843,18.1196574 17.9202843,17.8132011 17.9502586,17.5090779 C18.0237783,16.7236305 18.2943732,15.9725968 18.734665,15.3318033 L18.734665,15.3318033 L18.734665,15.3136049 C18.8575125,15.1434033 18.9919249,14.9826508 19.13684,14.8326307 L19.13684,14.8300642 Z M20.5881158,28.1204919 C19.5715855,28.4913425 18.6632696,29.1295695 17.9502586,29.9735784 C16.9239336,28.7525362 15.4983838,27.9768879 13.9535269,27.7989869 C13.552178,26.7368306 13.5478116,25.5555682 13.9411359,24.4901455 C14.1456457,23.9360277 14.4529413,23.4296223 14.8453215,23.0003269 L14.9003138,22.9428153 C15.5034582,22.3019052 16.2773618,21.8665436 17.1210088,21.6935422 C17.3941998,21.6378971 17.6718752,21.6098995 17.9502586,21.6098995 C18.2294682,21.6100162 18.5079696,21.6380137 18.7821047,21.6935422 C19.6235095,21.8642104 20.3964691,22.2959557 21.0003215,22.9324329 C21.0202651,22.9506313 21.0377304,22.9716294 21.0551958,22.9898278 C20.8470278,23.3893759 20.6795728,23.8108554 20.5556633,24.2470336 C20.1938474,25.5105388 20.2061204,26.8590865 20.590594,28.1152424 L20.5881158,28.1204919 Z M9.95186228,15.6533083 C10.1349416,15.3329699 10.3547217,15.0371293 10.6063171,14.7725526 C10.8254599,14.546006 11.0656084,14.3429072 11.3232341,14.1661728 C12.0813127,13.6566178 12.9726353,13.4077897 13.8724546,13.4546855 C14.7723919,13.5015814 15.6357464,13.8417514 16.3415588,14.4274831 C16.4698346,14.5345736 16.5924461,14.6488969 16.708803,14.7698695 L16.7637953,14.8300642 C16.0762743,16.1462981 15.8426163,17.6699471 16.1017643,19.1451836 C16.1424774,19.3788463 16.1949915,19.6100593 16.2591884,19.8377725 C15.3817909,20.0939499 14.5690622,20.5490264 13.8785911,21.1708049 C13.8036553,21.2386989 13.7313157,21.309276 13.6588581,21.3798531 L13.6188531,21.3406566 C13.1648721,20.8982956 12.6504705,20.5291949 12.0926415,20.2454866 C11.9826571,20.1906581 11.8703124,20.1357129 11.7553834,20.086134 C11.2697878,19.8790689 10.7611922,19.7367481 10.2416218,19.6626713 C10.0403809,19.6319907 9.83778289,19.6119258 9.63461843,19.6025933 C9.44238162,19.0796227 9.34413908,18.5241051 9.34482546,17.9638045 C9.34267575,17.1502429 9.55254313,16.35138 9.95186228,15.6533083 L9.95186228,15.6533083 Z M4.49633753,22.0515606 L4.47385681,22.0803747 C4.31301041,22.0036148 4.15699059,21.9163558 4.00672963,21.8189477 C3.71181312,21.6373138 3.43846867,21.419633 3.19240791,21.1708049 L3.12246392,21.0949783 C2.35148694,20.2537692 1.92331457,19.1318848 1.92834612,17.9663709 C1.92834612,17.8392155 1.93343975,17.7111268 1.94342332,17.5822215 C2.02449556,16.5570452 2.44090243,15.5924137 3.12246392,14.8509457 L3.19240791,14.7725526 C3.88935779,14.0439169 4.80346797,13.5865072 5.78304961,13.4761503 C6.76264307,13.36591 7.74883319,13.6093719 8.57798866,14.1661728 C8.0238888,14.9772846 7.65455574,15.9103023 7.49825271,16.8938322 C7.34194968,17.8773621 7.40283055,18.8852732 7.67622221,19.8404556 C7.14313975,19.9970085 6.63238463,20.2272881 6.15746887,20.5252285 C5.52215513,20.9276931 4.95980642,21.4443641 4.49633753,22.0515606 L4.49633753,22.0515606 Z M8.2082898,30.4806837 C7.48226248,30.2688357 6.82198982,29.8615883 6.29329731,29.2995379 C5.7646048,28.7374875 5.38597266,28.0402323 5.19515193,27.2772996 C5.00433124,26.5143669 5.00798952,25.7123543 5.20577275,24.9514048 C5.40354418,24.1904552 5.78853705,23.4969331 6.32233935,22.9402488 C6.40476869,22.8539231 6.48969983,22.7729636 6.57212917,22.6945705 C6.65455855,22.6161774 6.78695295,22.5115367 6.89935659,22.4331436 C7.38859865,22.0682424 7.94626241,21.816148 8.53551718,21.6935422 L8.71287305,21.6594785 C8.9288415,21.6271647 9.14668628,21.6105995 9.36483785,21.6098619 C9.9779777,21.608033 10.584391,21.7434711 11.1433764,22.0071145 C11.3154337,22.0920403 11.4822867,22.1880485 11.6429679,22.2946725 C11.9186962,22.477123 12.1741858,22.6909542 12.4048936,22.9324329 L12.4572896,22.9898278 C12.2500657,23.3899592 12.0827288,23.8112054 11.9577571,24.2470336 C11.7880247,24.8566798 11.7038842,25.488724 11.7079201,26.1236847 C11.7064096,26.725515 11.7854521,27.3246621 11.94277,27.903511 C10.4337406,28.2488139 9.1005801,29.1670163 8.20079622,30.4806837 L8.2082898,30.4806837 Z M12.7894852,38.7842844 C11.7340945,38.6619119 10.7588674,38.1366085 10.0505297,37.3088147 C9.34220371,36.481021 8.95055517,35.408949 8.95055517,34.2979137 C8.95055517,33.1867617 9.34220371,32.1148062 10.0505297,31.2870126 C10.7588674,30.459219 11.7340945,29.9339153 12.7894852,29.8115427 C13.3408237,29.7458652 13.8990066,29.7928777 14.4332338,29.9500138 L14.4332338,29.9500138 C15.1467167,30.1564956 15.7967108,30.5537106 16.319137,31.1026955 C16.5217586,31.3145435 16.7040827,31.5464564 16.863631,31.7952844 C16.7673355,32.0296471 16.6839031,32.2697259 16.6139237,32.5140043 C16.3007276,33.678935 16.3007276,34.9116429 16.6139237,36.0764569 C15.0552597,36.4347085 13.6868263,37.4035396 12.7894852,38.7842844 L12.7894852,38.7842844 Z M21.0003215,45.6555785 C20.2982855,46.3907469 19.3753364,46.8499065 18.3872463,46.9555971 C17.3991562,47.061288 16.4064638,46.8069769 15.5767419,46.2355941 C14.747138,45.6643278 14.1313666,44.8108697 13.8332756,43.8195239 C13.5353026,42.8281778 13.5734196,41.7594889 13.9411359,40.7941573 C14.1569745,40.2232409 14.4835057,39.7052867 14.9003138,39.2729581 C15.4062187,38.7454379 16.0293067,38.3574388 16.7136414,38.1434912 C17.3979761,37.9295432 18.1224339,37.8965294 18.8219918,38.0471328 C19.5215497,38.1978528 20.1744939,38.5276407 20.7225281,39.0069817 C21.2704443,39.4864393 21.6963392,40.1004017 21.9619776,40.7941573 C22.162357,41.3259937 22.2649069,41.8925937 22.2642518,42.46421 C22.266205,43.0572911 22.1555125,43.6447726 21.9384938,44.1927074 C21.7214751,44.7405259 21.4026145,45.2378319 21.0003215,45.6555785 L21.0003215,45.6555785 Z M26.5357738,36.2281099 C26.3221774,36.6963686 26.0342352,37.1232143 25.6839842,37.4904487 C24.992923,38.2167512 24.0848431,38.6734609 23.1110321,38.7842844 C22.2127469,37.398407 20.8401832,36.4263093 19.2766808,36.0686409 C19.0608422,36.018712 18.8422894,35.9820818 18.6222024,35.9588673 C18.2190833,34.8844619 18.2190833,33.6903674 18.6222024,32.615962 C18.7327769,32.325021 18.8726177,32.0473789 19.0393645,31.7874684 C19.1984408,31.5414402 19.3800568,31.3120937 19.5814983,31.1026955 C20.1043965,30.5538273 20.7540366,30.1559124 21.4674015,29.9474474 L21.4674015,29.9474474 C22.0015106,29.7903113 22.5598117,29.7431821 23.1110321,29.8089763 C24.0867312,29.9220163 24.9954012,30.3835089 25.6839842,31.115761 C26.0349433,31.4822954 26.3231215,31.9093743 26.5357738,32.3780997 C26.5807353,32.4748078 26.6207404,32.5741991 26.6581493,32.6734736 C26.8685595,33.2456731 26.966271,33.8564859 26.9451474,34.4690486 C26.9241418,35.0817279 26.784891,35.6836746 26.5357738,36.2384924 L26.5357738,36.2281099 Z M29.5857187,29.3227525 C29.0637645,29.8733706 28.4137705,30.2724521 27.6998155,30.4806837 C27.1229871,29.638658 26.3624185,28.9529518 25.4813627,28.4806101 C24.6001888,28.0082685 23.6240176,27.7629401 22.6339213,27.7650399 L22.5115459,27.7650399 C22.1237681,26.7110496 22.1237681,25.5440192 22.5115459,24.4901455 C22.7195959,23.9341612 23.032202,23.4275225 23.4308367,23.0003269 L23.4857109,22.9428153 C23.8846997,22.5214525 24.3598043,22.1874653 24.8835286,21.9603353 C25.4072529,21.733322 25.9688582,21.6177155 26.5357738,21.6201997 C26.7538546,21.6210986 26.9716994,21.6376637 27.1877741,21.6699776 L27.1877741,21.6699776 L27.3650237,21.7039246 C27.9544791,21.8215142 28.5130161,22.0692923 29.0036979,22.4305771 L29.0036979,22.4305771 C29.212692,22.5857301 29.407525,22.7607147 29.5857187,22.9533144 C29.9864776,23.3722274 30.3043941,23.8697668 30.5212948,24.4173519 C30.7381955,24.9649369 30.8498321,25.5518351 30.8498321,26.1445662 C30.8498321,26.7372972 30.7381955,27.3241955 30.5212948,27.8717805 C30.3043941,28.4193655 29.9864776,28.916905 29.5857187,29.335818 L29.5857187,29.3227525 Z M32.7082392,21.1708049 C32.3412309,21.5574041 31.9093177,21.8701599 31.4342131,22.0934402 C31.3642337,22.001865 31.2918941,21.9104063 31.2194365,21.8320133 C30.6364717,21.1316084 29.9167342,20.5701412 29.108726,20.1856418 C28.3008358,19.8010258 27.4234382,19.6022433 26.5357738,19.6025933 C26.4458509,19.6025933 26.355928,19.6025933 26.2660051,19.6025933 C26.0619673,19.6109925 25.8586377,19.6302408 25.6564881,19.6601049 C25.4492642,19.1209191 25.343174,18.5449866 25.3441889,17.9638045 C25.3416399,17.1493097 25.5514601,16.3496302 25.9512748,15.6507418 C26.1160155,15.3607341 26.3121466,15.0914912 26.5357738,14.8483793 L26.6057532,14.7698695 C26.8247781,14.5434395 27.0650446,14.3402241 27.3226585,14.1634897 C27.8964186,13.7792236 28.5487729,13.5418279 29.2266171,13.4705508 C29.9045793,13.3992738 30.588914,13.4960986 31.2243929,13.7532092 C31.7861162,13.9806892 32.2965055,14.3277419 32.7232264,14.7725526 C33.1239852,15.191699 33.4420197,15.6893551 33.6589204,16.2371734 C33.8758211,16.7849918 33.9875759,17.3721233 33.9875759,17.9650877 C33.9875759,18.5580521 33.8758211,19.1451836 33.6589204,19.6930019 C33.4420197,20.2408203 33.1239852,20.7384764 32.7232264,21.1577394 L32.7082392,21.1708049 Z" id="path-1"></path>
        <filter x="-19.5%" y="-10.2%" width="139.0%" height="128.6%" filterUnits="objectBoundingBox" id="filter-2">
            <feOffset dx="0" dy="2" in="SourceAlpha" result="shadowOffsetOuter1"></feOffset>
            <feGaussianBlur stdDeviation="2" in="shadowOffsetOuter1" result="shadowBlurOuter1"></feGaussianBlur>
            <feColorMatrix values="0 0 0 0 0   0 0 0 0 0   0 0 0 0 0  0 0 0 0.5 0" type="matrix" in="shadowBlurOuter1"></feColorMatrix>
        </filter>
        <path d="M64.1757685,24.098676 L69.2447996,24.098676 L69.2447996,34.325325 C67.8814654,35.3889058 66.3514782,36.1930824 64.7241598,36.7015748 C63.0487595,37.2471584 61.3052046,37.5263833 59.5512625,37.5299765 C57.2136847,37.5698491 54.9036492,36.9940133 52.8320392,35.8549756 C50.8956892,34.788961 49.2773573,33.1811875 48.1557166,31.2091122 C47.0130696,29.1783869 46.4266327,26.8551074 46.4610605,24.496012 C46.426983,22.1362211 47.0134198,19.8122462 48.1557166,17.7804777 C49.2868103,15.8031865 50.9210142,14.1977313 52.8740526,13.1449301 C54.9681864,12.0067039 57.2978281,11.4311926 59.655012,11.4699178 C61.612719,11.4414158 63.5564214,11.8209018 65.37385,12.5865965 C67.0359461,13.2916708 68.5150504,14.4016151 69.689441,15.8249774 L66.1272901,19.2736172 C65.344324,18.3657021 64.3870024,17.642662 63.3185789,17.1524829 C62.2501554,16.6623038 61.0949041,16.4159973 59.9292663,16.4300223 C58.5117815,16.4022041 57.1104017,16.748656 55.8532682,17.437619 C54.6864632,18.089607 53.7231898,19.0814401 53.0791014,20.2941957 C52.4032695,21.5826399 52.0623776,23.035443 52.0909699,24.5064438 C52.0650618,25.965506 52.4059536,27.4059068 53.0791014,28.6822965 C53.7252904,29.8871703 54.6805114,30.876917 55.8358794,31.5388732 C57.0697889,32.2437157 58.4559972,32.6015267 59.8600609,32.5776495 C61.3619226,32.6028017 62.8458117,32.2313134 64.1757685,31.4973778 L64.1757685,24.098676 Z" id="path-3"></path>
        <filter x="-30.1%" y="-19.2%" width="160.3%" height="153.7%" filterUnits="objectBoundingBox" id="filter-4">
            <feOffset dx="0" dy="2" in="SourceAlpha" result="shadowOffsetOuter1"></feOffset>
            <feGaussianBlur stdDeviation="2" in="shadowOffsetOuter1" result="shadowBlurOuter1"></feGaussianBlur>
            <feColorMatrix values="0 0 0 0 0   0 0 0 0 0   0 0 0 0 0  0 0 0 0.5 0" type="matrix" in="shadowBlurOuter1"></feColorMatrix>
        </filter>
        <path d="M89.8647785,37.5319149 L85.0336818,30.2688425 L79.7064266,30.2688425 L79.7064266,37.5319149 L73.9130435,37.5319149 L73.9130435,11.4680851 L84.7493889,11.4680851 C86.9680284,11.4680851 88.8934247,11.8528656 90.5253419,12.6224267 C92.063162,13.3073557 93.3751026,14.4451993 94.2995847,15.8958687 C95.2080504,17.4017632 95.6686428,19.1534495 95.6233021,20.9307222 C95.6899591,22.6880815 95.230191,24.4235592 94.3074753,25.8971522 C93.3848772,27.3707453 92.044908,28.509515 90.4730526,29.1561223 L96.0869565,37.5319149 L89.8647785,37.5319149 Z M88.3990327,17.5586393 C87.4916269,16.7753009 86.1679096,16.3844422 84.4278809,16.3861673 L79.7064266,16.3861673 L79.7064266,25.4649615 L84.4278809,25.4649615 C86.1679096,25.4649615 87.4916269,25.0680824 88.3990327,24.2743243 C89.3064385,23.4805661 89.76338,22.3659935 89.7700929,20.9307222 C89.7700929,19.460834 89.3130334,18.3367677 88.3990327,17.5586393 Z" id="path-5"></path>
        <filter x="-31.6%" y="-19.2%" width="163.1%" height="153.7%" filterUnits="objectBoundingBox" id="filter-6">
            <feOffset dx="0" dy="2" in="SourceAlpha" result="shadowOffsetOuter1"></feOffset>
            <feGaussianBlur stdDeviation="2" in="shadowOffsetOuter1" result="shadowBlurOuter1"></feGaussianBlur>
            <feColorMatrix values="0 0 0 0 0   0 0 0 0 0   0 0 0 0 0  0 0 0 0.5 0" type="matrix" in="shadowBlurOuter1"></feColorMatrix>
        </filter>
        <path d="M116.169062,31.9368229 L104.367427,31.9368229 L102.114423,37.5319149 L96.0869565,37.5319149 L107.417756,11.4680851 L113.227563,11.4680851 L124.596273,37.5319149 L118.421708,37.5319149 L116.169062,31.9368229 Z M114.318606,27.3584731 L110.285945,17.38486 L106.255914,27.3584731 L114.318606,27.3584731 Z" id="path-7"></path>
        <filter x="-24.6%" y="-19.2%" width="149.1%" height="153.7%" filterUnits="objectBoundingBox" id="filter-8">
            <feOffset dx="0" dy="2" in="SourceAlpha" result="shadowOffsetOuter1"></feOffset>
            <feGaussianBlur stdDeviation="2" in="shadowOffsetOuter1" result="shadowBlurOuter1"></feGaussianBlur>
            <feColorMatrix values="0 0 0 0 0   0 0 0 0 0   0 0 0 0 0  0 0 0 0.5 0" type="matrix" in="shadowBlurOuter1"></feColorMatrix>
        </filter>
        <path d="M142.61769,12.6301837 C144.187234,13.3152284 145.52706,14.453072 146.471192,15.9037415 C147.398487,17.4073204 147.868749,19.1559965 147.823046,20.9307222 C147.862735,22.6982697 147.392473,24.43861 146.471192,25.936979 C145.534276,27.3936688 144.192045,28.533249 142.61769,29.2105368 C140.950725,29.9679415 138.984284,30.3467595 136.718366,30.3467595 L131.561119,30.3467595 L131.561119,37.5319149 L125.652174,37.5319149 L125.652174,11.4680851 L136.718366,11.4680851 C138.984284,11.4680851 140.950725,11.8554127 142.61769,12.6301837 Z M140.445584,24.2509376 C141.370473,23.4710725 141.833519,22.3608994 141.833519,20.9204181 C141.833519,19.4798212 141.370473,18.359344 140.445584,17.5586393 C139.519493,16.7753009 138.167639,16.3844422 136.390025,16.3861673 L131.561119,16.3861673 L131.561119,25.4233981 L136.397241,25.4233981 C138.170045,25.4233981 139.519493,25.0326551 140.445584,24.2509376 Z" id="path-9"></path>
        <filter x="-31.6%" y="-19.2%" width="163.1%" height="153.7%" filterUnits="objectBoundingBox" id="filter-10">
            <feOffset dx="0" dy="2" in="SourceAlpha" result="shadowOffsetOuter1"></feOffset>
            <feGaussianBlur stdDeviation="2" in="shadowOffsetOuter1" result="shadowBlurOuter1"></feGaussianBlur>
            <feColorMatrix values="0 0 0 0 0   0 0 0 0 0   0 0 0 0 0  0 0 0 0.5 0" type="matrix" in="shadowBlurOuter1"></feColorMatrix>
        </filter>
        <polygon id="path-11" points="169.968055 32.6785978 169.968055 37.5319149 150.993789 37.5319149 150.993789 11.4680851 170 11.4680851 170 16.3057147 156.77942 16.3057147 156.77942 21.968304 168.454799 21.968304 168.454799 26.6555988 156.77942 26.6555988 156.77942 32.6838077"></polygon>
        <filter x="-36.8%" y="-19.2%" width="173.7%" height="153.7%" filterUnits="objectBoundingBox" id="filter-12">
            <feOffset dx="0" dy="2" in="SourceAlpha" result="shadowOffsetOuter1"></feOffset>
            <feGaussianBlur stdDeviation="2" in="shadowOffsetOuter1" result="shadowBlurOuter1"></feGaussianBlur>
            <feColorMatrix values="0 0 0 0 0   0 0 0 0 0   0 0 0 0 0  0 0 0 0.5 0" type="matrix" in="shadowBlurOuter1"></feColorMatrix>
        </filter>
        <text id="text-13" font-family="GillSans, Gill Sans" font-size="80" font-weight="normal" fill="#FFFFFF">
            <tspan x="0.2421875" y="73">Governance</tspan>
        </text>
        <filter x="-2.2%" y="-7.1%" width="104.3%" height="118.7%" filterUnits="objectBoundingBox" id="filter-14">
            <feOffset dx="0" dy="2" in="SourceAlpha" result="shadowOffsetOuter1"></feOffset>
            <feGaussianBlur stdDeviation="2.5" in="shadowOffsetOuter1" result="shadowBlurOuter1"></feGaussianBlur>
            <feColorMatrix values="0 0 0 0 0   0 0 0 0 0   0 0 0 0 0  0 0 0 0.5 0" type="matrix" in="shadowBlurOuter1"></feColorMatrix>
        </filter>
    </defs>
    <g id="Page-1" stroke="none" stroke-width="1" fill="none" fill-rule="evenodd">
        <g id="Group-4" transform="translate(5.000000, 3.000000)">
            <g id="Group" transform="translate(224.011858, 79.597332)" fill-rule="nonzero">
                <g id="grape_logo">
                    <g id="Shape">
                        <use fill="black" fill-opacity="1" filter="url(#filter-2)" xlink:href="#path-1"></use>
                        <use fill="#FFFFFF" xlink:href="#path-1"></use>
                    </g>
                    <g id="Path">
                        <use fill="black" fill-opacity="1" filter="url(#filter-4)" xlink:href="#path-3"></use>
                        <use fill="#FFFFFF" xlink:href="#path-3"></use>
                    </g>
                    <g id="Shape">
                        <use fill="black" fill-opacity="1" filter="url(#filter-6)" xlink:href="#path-5"></use>
                        <use fill="#FFFFFF" xlink:href="#path-5"></use>
                    </g>
                    <g id="Shape">
                        <use fill="black" fill-opacity="1" filter="url(#filter-8)" xlink:href="#path-7"></use>
                        <use fill="#FFFFFF" xlink:href="#path-7"></use>
                    </g>
                    <g id="Shape">
                        <use fill="black" fill-opacity="1" filter="url(#filter-10)" xlink:href="#path-9"></use>
                        <use fill="#FFFFFF" xlink:href="#path-9"></use>
                    </g>
                    <g id="Path">
                        <use fill="black" fill-opacity="1" filter="url(#filter-12)" xlink:href="#path-11"></use>
                        <use fill="#FFFFFF" xlink:href="#path-11"></use>
                    </g>
                </g>
            </g>
            <g id="Governance" fill="#FFFFFF" fill-opacity="1">
                <use filter="url(#filter-14)" xlink:href="#text-13"></use>
                <use xlink:href="#text-13"></use>
            </g>
        </g>
    </g>
</svg>