<?xml version="1.0" encoding="UTF-8"?>
<svg width="476px" height="72px" viewBox="0 0 476 72" version="1.1" xmlns="http://www.w3.org/2000/svg" xmlns:xlink="http://www.w3.org/1999/xlink">
    <title>Group</title>
    <g id="Page-1" stroke="none" stroke-width="1" fill="none" fill-rule="evenodd">
        <g id="Group" fill="#FFFFFF">
            <path d="M36,72 C55.88226,72 72,55.88226 72,36 C72,16.11774 55.88226,0 36,0 C16.117758,0 0,16.11774 0,36 C0,55.88226 16.117758,72 36,72 Z M44.80578,20.0979 L59.04,14.76 L12.96,14.76 L27.21942,20.10726 L12.96,36 L23.04,36 L36.045,21.33 L49.14,36 L59.04,36 L44.80578,20.0979 Z M30.71484,54.549 C32.4063,55.37556 34.21818,55.80396 36.04878,55.81026 C36.2295,55.80972 36.41022,55.8063 36.59076,55.79982 C38.2644,55.72944 39.91536,55.30626 41.46516,54.549 C43.16922,53.71632 44.71776,52.49574 46.02204,50.95692 C47.32632,49.41828 48.36096,47.59164 49.06674,45.58122 C49.1058,45.46998 49.14378,45.35838 49.18068,45.24642 L36,39.24 L59.04,39.24 C59.04,42.26562 58.44402,45.26172 57.28626,48.05694 C56.12832,50.85234 54.43128,53.39232 52.2918,55.5318 C50.15232,57.67128 47.61234,59.36832 44.81694,60.52626 C42.18102,61.61814 39.79782,62.21016 36.59076,62.27424 C36.42642,62.27802 36.25956,62.28 36.09,62.28 L36.04878,62.28 L36,62.28 C32.48928,62.28 29.97828,61.68402 27.18306,60.52626 C24.38766,59.36832 21.84768,57.67128 19.7082,55.5318 C17.568792,53.39232 15.87168,50.85234 14.713812,48.05694 C13.555944,45.26172 12.96,42.26562 12.96,39.24 L22.04406,39.24 C22.04406,41.41602 22.4073,43.5708 23.11326,45.58122 C23.81904,47.59164 24.85368,49.41828 26.15796,50.95692 C27.46224,52.49574 29.01078,53.71632 30.71484,54.549 Z" id="Shape"></path>
            <path d="M134.798494,59.2744357 C130.747445,61.0914786 125.677789,62 119.589527,62 C101.863176,62 93,53.0943599 93,35.2827124 C93,18.4275096 102.015499,10 120.046137,10 C125.549025,10 130.466537,10.8367835 134.798494,12.5103505 L134.798494,21.1172692 C130.466537,19.2045635 125.783175,18.2483025 120.748588,18.2483025 C108.689137,18.2483025 102.659322,23.9263779 102.659322,35.2827124 C102.659322,47.5954916 108.349601,53.7516975 119.729981,53.7516975 C121.415969,53.7516975 123.336108,53.4648927 125.490397,52.8910993 L125.490397,37.972472 L134.798494,37.972472 L134.798494,59.2744357 Z M150.253481,42.6704166 C150.253481,50.5360678 153.238985,54.469077 159.210173,54.469077 C165.181361,54.469077 168.167044,50.5360678 168.167044,42.6704166 C168.167044,34.9959075 165.181361,31.1585612 159.210173,31.1585612 C153.238985,31.1585612 150.253481,34.9959075 150.253481,42.6704166 Z M140.945384,42.8138191 C140.945384,30.1903652 147.033647,23.8786383 159.210173,23.8786383 C171.386878,23.8786383 177.475141,30.1903652 177.475141,42.8138191 C177.475141,55.4134031 171.386878,61.7131951 159.210173,61.7131951 C147.080405,61.7131951 140.992142,55.4134031 140.945384,42.8138191 Z M180.10942,23.986236 L189.944804,23.986236 L198.900776,50.3089374 L208.209233,23.986236 L218.044617,23.986236 L203.046061,61.6414021 L194.194395,61.6414021 L180.10942,23.986236 Z M237.995934,23.986236 C249.187302,23.986236 254.783886,29.8198324 254.783886,41.4868416 C254.783886,43.0409494 254.679579,44.5948736 254.469168,46.1489815 L229.985913,46.1489815 C229.985913,51.4565241 233.803891,54.1102954 241.438048,54.1102954 C245.160712,54.1102954 248.883375,53.7516975 252.607836,53.0345018 L252.607836,60.5656084 C249.352754,61.2828042 245.394502,61.6414021 240.734879,61.6414021 C227.363864,61.6414021 220.679255,55.2220774 220.679255,42.3834281 C220.679255,30.1185722 226.450283,23.986236 237.995934,23.986236 Z M229.985913,39.5504497 L245.721809,39.5504497 L245.721809,39.2634612 C245.721809,34.0515814 243.146517,31.4455497 237.995934,31.4455497 C233.077342,31.4455497 230.408535,34.1470606 229.985913,39.5504497 Z M261.77422,61.6414021 L261.77422,23.986236 L268.974966,23.986236 L270.134926,28.7917783 C273.364831,25.5880835 276.785365,23.986236 280.391133,23.986236 L280.391133,31.6607451 C276.925639,31.6607451 273.821622,33.131125 271.082677,36.0717012 L271.082677,61.6414021 L261.77422,61.6414021 Z M285.658611,61.6414021 L285.658611,23.986236 L292.859357,23.986236 L294.019317,29.5089741 C297.554948,25.8271487 301.583337,23.986236 306.102687,23.986236 C314.835659,23.986236 319.203943,28.6243225 319.203943,37.900679 L319.203943,61.6414021 L309.895487,61.6414021 L309.895487,37.900679 C309.895487,33.7407231 307.870502,31.6607451 303.818734,31.6607451 C300.797442,31.6607451 297.848086,32.8918761 294.967068,35.3545054 L294.967068,61.6414021 L285.658611,61.6414021 Z M326.264415,49.9145348 C326.264415,42.4313514 331.60203,38.6896678 342.280858,38.6896678 C344.786013,38.6896678 347.291167,38.9287331 349.796322,39.4068636 L349.796322,36.5738852 C349.796322,33.2027344 347.420651,31.5173427 342.667512,31.5173427 C338.639123,31.5173427 334.166532,32.1150058 329.249739,33.3103322 L329.249739,25.7794091 C334.166532,24.5838992 338.639123,23.986236 342.667512,23.986236 C353.62509,23.986236 359.104778,28.1223222 359.104778,36.3944944 L359.104778,61.6414021 L353.695227,61.6414021 L350.395185,58.270435 C347.186861,60.5176852 343.65123,61.6414021 339.786494,61.6414021 C330.771175,61.6414021 326.264415,57.7324463 326.264415,49.9145348 Z M349.796322,45.861993 C347.454821,45.3838625 344.949666,45.1447972 342.280858,45.1447972 C337.808267,45.1447972 335.571073,46.698905 335.571073,49.8069371 C335.571073,53.1540344 337.444993,54.8276748 341.191035,54.8276748 C344.282464,54.8276748 347.150893,53.8473604 349.796322,51.886915 L349.796322,45.861993 Z M367.922275,61.6414021 L367.922275,23.986236 L375.123021,23.986236 L376.281182,29.5089741 C379.816813,25.8271487 383.845202,23.986236 388.364552,23.986236 C397.099322,23.986236 401.465808,28.6243225 401.465808,37.900679 L401.465808,61.6414021 L392.157352,61.6414021 L392.157352,37.900679 C392.157352,33.7407231 390.132367,31.6607451 386.080599,31.6607451 C383.061105,31.6607451 380.109951,32.8918761 377.228933,35.3545054 L377.228933,61.6414021 L367.922275,61.6414021 Z M437.503706,60.5656084 C434.459035,61.2828042 431.299267,61.6414021 428.020806,61.6414021 C414.90696,61.6414021 408.350038,55.1264146 408.350038,42.0966233 C408.350038,30.0229094 414.90696,23.986236 428.020806,23.986236 C431.299267,23.986236 434.459035,24.3448339 437.503706,25.0620297 L437.503706,32.5931364 C434.459035,31.8759406 431.533058,31.5173427 428.722177,31.5173427 C421.346988,31.5173427 417.658494,35.0436471 417.658494,42.0966233 C417.658494,50.1056768 421.346988,54.1102954 428.722177,54.1102954 C431.533058,54.1102954 434.459035,53.7516975 437.503706,53.0345018 L437.503706,60.5656084 Z M459.210249,23.986236 C470.403416,23.986236 476,29.8198324 476,41.4868416 C476,43.0409494 475.895693,44.5948736 475.683484,46.1489815 L451.202028,46.1489815 C451.202028,51.4565241 455.020005,54.1102954 462.652364,54.1102954 C466.376826,54.1102954 470.099489,53.7516975 473.822152,53.0345018 L473.822152,60.5656084 C470.56707,61.2828042 466.610616,61.6414021 461.950993,61.6414021 C448.579978,61.6414021 441.893571,55.2220774 441.893571,42.3834281 C441.893571,30.1185722 447.666397,23.986236 459.210249,23.986236 Z M451.202028,39.5504497 L466.937923,39.5504497 L466.937923,39.2634612 C466.937923,34.0515814 464.362631,31.4455497 459.210249,31.4455497 C454.293457,31.4455497 451.624649,34.1470606 451.202028,39.5504497 Z" id="Shape" fill-rule="nonzero"></path>
        </g>
    </g>
</svg>