<?xml version="1.0" encoding="UTF-8"?>
<svg width="512px" height="512px" viewBox="0 0 512 512" version="1.1" xmlns="http://www.w3.org/2000/svg" xmlns:xlink="http://www.w3.org/1999/xlink">
    <title>Group 2</title>
    <defs>
        <linearGradient x1="198.716023%" y1="-92.2344058%" x2="6.29391642%" y2="85.6076218%" id="linearGradient-1">
            <stop stop-color="#FFFFFF" offset="0%"></stop>
            <stop stop-color="#1B1321" offset="74.0138767%"></stop>
            <stop stop-color="#0E0119" offset="100%"></stop>
        </linearGradient>
    </defs>
    <g id="Page-1" stroke="none" stroke-width="1" fill="none" fill-rule="evenodd">
        <g id="Group-2">
            <g>
                <rect id="Rectangle" fill="url(#linearGradient-1)" x="2.84217094e-14" y="0" width="512" height="512"></rect>
                <g id="governance-logo" transform="translate(106.000000, 377.000000)"></g>
            </g>
            <path d="M256,56 C366.457,56 456,145.543 456,256 C456,366.457 366.457,456 256,456 C145.5431,456 56,366.457 56,256 C56,145.543 145.5431,56 256,56 Z M179.118003,273.777778 L128.592593,273.777778 C128.592593,290.508958 131.907225,307.076898 138.34727,322.534005 C144.787315,337.992106 154.226627,352.037778 166.125984,363.86875 C178.025741,375.699722 192.153073,385.084074 207.701047,391.487292 C223.248021,397.889514 237.214167,401.185185 256.740741,401.185185 L257.241319,401.185185 C258.18441,401.185185 259.112483,401.174236 260.026539,401.153333 C277.864161,400.798981 291.119485,397.525208 305.780434,391.487292 C321.328409,385.084074 335.455741,375.699722 347.355498,363.86875 C359.255255,352.037778 368.694167,337.992106 375.134612,322.534005 C381.574057,307.076898 384.888889,290.508958 384.888889,273.777778 L256.740741,273.777778 L330.051493,306.992292 C329.773839,307.816458 329.562595,308.433588 329.41776,308.843681 C325.492222,319.960972 319.737569,330.061991 312.483183,338.570417 C305.228796,347.079838 296.615839,353.829444 287.137882,358.434028 C278.517917,362.621551 269.335301,364.961667 260.026539,365.350856 C259.022378,365.38669 258.017216,365.405602 257.012054,365.408588 C246.830284,365.37375 236.752633,363.004769 227.344757,358.434028 C217.8668,353.829444 209.253843,347.079838 201.999456,338.570417 C194.745069,330.061991 188.990417,319.960972 185.064878,308.843681 C181.138339,297.726389 179.118003,285.81081 179.118003,273.777778 Z M384.888889,137.481481 L128.592593,137.481481 L207.903281,167.319021 L128.592593,256 L184.657407,256 L256.99103,174.141871 L329.825231,256 L384.888889,256 L305.718362,167.266792 L384.888889,137.481481 Z" id="Shape" fill="#FFFFFF" fill-rule="nonzero"></path>
        </g>
    </g>
</svg>