<?xml version="1.0" encoding="UTF-8"?>
<svg width="1024px" height="1024px" viewBox="0 0 1024 1024" version="1.1" xmlns="http://www.w3.org/2000/svg" xmlns:xlink="http://www.w3.org/1999/xlink">
    <title>Group 2</title>
    <defs>
        <linearGradient x1="198.716023%" y1="-92.2344058%" x2="6.29391642%" y2="85.6076218%" id="linearGradient-1">
            <stop stop-color="#FFFFFF" offset="0%"></stop>
            <stop stop-color="#1B1321" offset="74.0138767%"></stop>
            <stop stop-color="#0E0119" offset="100%"></stop>
        </linearGradient>
    </defs>
    <g id="Page-1" stroke="none" stroke-width="1" fill="none" fill-rule="evenodd">
        <g id="Group-2" transform="translate(-0.000000, 0.000000)">
            <g>
                <rect id="Rectangle" fill="url(#linearGradient-1)" x="5.68434189e-14" y="0" width="1024" height="1024"></rect>
                <g id="governance-logo" transform="translate(212.000000, 754.000000)"></g>
            </g>
            <path d="M512,112 C732.914,112 912,291.086 912,512 C912,732.914 732.914,912 512,912 C291.0862,912 112,732.914 112,512 C112,291.086 291.0862,112 512,112 Z M358.236007,547.555556 L257.185185,547.555556 C257.185185,581.017917 263.814449,614.153796 276.694539,645.068009 C289.57463,675.984213 308.453255,704.075556 332.251968,727.7375 C356.051481,751.399444 384.306146,770.168148 415.402095,782.974583 C446.496042,795.779028 474.428333,802.37037 513.481481,802.37037 L514.482639,802.37037 C516.368819,802.37037 518.224965,802.348472 520.053079,802.306667 C555.728322,801.597963 582.23897,795.050417 611.560868,782.974583 C642.656817,770.168148 670.911481,751.399444 694.710995,727.7375 C718.510509,704.075556 737.388333,675.984213 750.269225,645.068009 C763.148113,614.153796 769.777778,581.017917 769.777778,547.555556 L513.481481,547.555556 L660.102986,613.984583 C659.547677,615.632917 659.125189,616.867176 658.835521,617.687361 C650.984444,639.921944 639.475139,660.123981 624.966366,677.140833 C610.457593,694.159676 593.231678,707.658889 574.275764,716.868056 C557.035833,725.243102 538.670602,729.923333 520.053079,730.701713 C518.044757,730.77338 516.034433,730.811204 514.024109,730.817176 C493.660567,730.7475 473.505266,726.009537 454.689514,716.868056 C435.7336,707.658889 418.507685,694.159676 403.998912,677.140833 C389.490139,660.123981 377.980833,639.921944 370.129757,617.687361 C362.276678,595.452778 358.236007,571.62162 358.236007,547.555556 Z M769.777778,274.962963 L257.185185,274.962963 L415.806563,334.638041 L257.185185,512 L369.314815,512 L513.98206,348.283741 L659.650463,512 L769.777778,512 L611.436725,334.533584 L769.777778,274.962963 Z" id="Shape" fill="#FFFFFF" fill-rule="nonzero"></path>
        </g>
    </g>
</svg>